HIERARCHY
ROOT hip
{
	OFFSET 0.000000 0.000000 0.000000 
	CHANNELS 6 Xposition Yposition Zposition Xrotation Zrotation Yrotation
	JOINT abdomen
	{
		OFFSET 0.000000 3.402643 0.000000 
		CHANNELS 3 Xrotation Zrotation Yrotation
		JOINT chest
		{
			OFFSET 0.000000 8.438565 -0.680529 
			CHANNELS 3 Xrotation Zrotation Yrotation
			JOINT neck
			{
				OFFSET 0.000000 10.207942 -0.272212 
				CHANNELS 3 Xrotation Zrotation Yrotation
				JOINT head
				{
					OFFSET 0.000000 3.130431 0.000000 
					CHANNELS 3 Xrotation Zrotation Yrotation
					End Site
					{
						OFFSET 0.000000 3.130435 0.000000 
					}
				}
			}
			JOINT lCollar
			{
				OFFSET 3.470700 6.669187 -0.816635 
				CHANNELS 3 Yrotation Zrotation Xrotation
				JOINT lShldr
				{
					OFFSET 3.198488 0.000000 0.000000 
					CHANNELS 3 Zrotation Yrotation Xrotation
					JOINT lForeArm
					{
						OFFSET 10.139888 0.000000 0.000000 
						CHANNELS 3 Yrotation Zrotation Xrotation
						JOINT lHand
						{
							OFFSET 8.370511 0.000000 0.000000 
							CHANNELS 3 Zrotation Yrotation Xrotation
							End Site
							{
								OFFSET 4.083176 0.000000 0.000000 
							}
						}
					}
				}
			}
			JOINT rCollar
			{
				OFFSET -3.470700 6.669187 -0.816635 
				CHANNELS 3 Yrotation Zrotation Xrotation
				JOINT rShldr
				{
					OFFSET -3.198488 0.000000 0.000000 
					CHANNELS 3 Zrotation Yrotation Xrotation
					JOINT rForeArm
					{
						OFFSET -10.139888 0.000000 0.000000 
						CHANNELS 3 Yrotation Zrotation Xrotation
						JOINT rHand
						{
							OFFSET -8.370511 0.000000 0.000000 
							CHANNELS 3 Zrotation Yrotation Xrotation
							End Site
							{
								OFFSET -4.083176 0.000000 0.000000 
							}
						}
					}
				}
			}
		}
	}
	JOINT lThigh
	{
		OFFSET 5.308129 -1.633274 1.361059 
		CHANNELS 3 Xrotation Zrotation Yrotation
		JOINT lShin
		{
			OFFSET -2.041588 -20.007561 0.000000 
			CHANNELS 3 Xrotation Zrotation Yrotation
			JOINT lFoot
			{
				OFFSET 0.000000 -19.190928 -1.224953 
				CHANNELS 3 Xrotation Yrotation Zrotation
				End Site
				{
					OFFSET 0.000000 -2.449906 4.627600 
				}
			}
		}
	}
	JOINT rThigh
	{
		OFFSET -5.308129 -1.633274 1.361059 
		CHANNELS 3 Xrotation Zrotation Yrotation
		JOINT rShin
		{
			OFFSET 2.041588 -20.007561 0.000000 
			CHANNELS 3 Xrotation Zrotation Yrotation
			JOINT rFoot
			{
				OFFSET 0.000000 -19.190928 -1.224953 
				CHANNELS 3 Xrotation Yrotation Zrotation
				End Site
				{
					OFFSET 0.000000 -2.449906 4.627600 
				}
			}
		}
	}
}
MOTION
Frames: 15
Frame Time: 0.011111
135.959412 52.563427 -5.251467 7.565582 12.051348 96.031754 34.324131 -10.142697 -8.435686 -22.710163 4.406210 -0.977813 -25.505753 0.493460 0.716813 34.813343 0.234715 1.918974 3.134826 -1.098498 2.090950 -57.647800 -49.702003 56.147148 -85.716110 1.976198 27.736643 8.524705 12.647240 -32.815811 -2.361975 3.467811 1.820220 59.810783 -6.151135 24.332058 62.364708 -9.423009 13.485169 -8.534408 -12.637552 61.732281 15.049511 0.049647 3.167633 24.111435 -5.646597 -4.085537 -22.649296 -2.032130 -3.319929 -3.036621 -17.239037 -2.336480 24.423929 5.595497 4.084320 -19.683641 -2.525115 1.871442 
136.275238 52.446987 -5.155759 7.223308 12.112999 95.953896 34.366341 -9.822811 -8.036902 -22.719006 4.254709 -0.908260 -25.525204 0.419392 0.719654 34.531082 0.297551 1.890561 3.134826 -1.098498 2.090950 -57.598541 -50.015419 55.811062 -85.711235 1.984323 27.726036 8.524705 12.647240 -33.323620 -2.361975 3.467811 1.820220 59.963577 -6.435852 23.653461 61.894722 -9.398847 13.259337 -8.534408 -12.637552 61.410011 15.083775 0.644966 3.402227 24.636559 -5.628209 -4.138293 -23.068140 -2.379100 -3.451030 -2.207088 -16.647449 -2.552617 23.959230 5.612524 4.035758 -18.274755 -3.573744 1.692830 
136.612137 52.326385 -5.126408 6.830404 12.196411 96.041313 34.321190 -9.154467 -7.632341 -22.677267 3.836610 -0.873707 -25.378387 0.210884 0.786308 33.997799 0.613356 2.020614 3.134826 -1.098498 2.090950 -57.479301 -50.632809 55.726608 -85.669144 2.048317 27.642595 8.524705 12.647240 -33.382214 -2.361975 3.467811 1.820220 60.164631 -6.750360 22.899418 61.554558 -9.384780 13.111858 -8.534408 -12.637552 60.999859 15.267954 1.094194 3.341439 25.112587 -5.598526 -4.204580 -23.594730 -2.641643 -3.558537 -1.465090 -16.244812 -3.409876 23.979290 5.612561 4.037518 -19.067818 -2.642481 1.902734 
136.941360 52.233559 -5.042186 7.701106 11.833907 96.256348 34.056164 -10.155322 -8.060970 -22.580395 4.005095 -0.859928 -25.183178 0.133875 0.789588 33.420650 0.517248 1.946610 3.134826 -1.098498 2.090950 -57.459942 -50.408443 55.308647 -85.695518 2.008366 27.694916 8.524705 12.647240 -33.714245 -2.361975 3.467811 1.820220 60.357487 -6.908553 22.202541 61.019947 -9.348294 12.863072 -8.534408 -12.637552 60.404156 15.244720 0.186357 2.785075 25.697435 -5.569533 -4.290188 -24.180557 -2.646487 -3.516679 -1.962705 -17.328299 -4.062665 24.788263 5.570631 4.160294 -19.848961 -3.392462 1.543632 
137.224991 52.129555 -5.009007 7.619126 11.666718 96.338554 33.974270 -9.886574 -7.742597 -22.646679 3.616009 -0.815969 -25.291325 0.068117 0.669886 32.952885 0.604984 1.658614 3.134826 -1.098498 2.090950 -57.433804 -50.526096 55.149296 -85.674187 2.039630 27.643463 8.524705 12.647240 -34.095104 -2.361975 3.467811 1.820220 60.785343 -6.903152 21.229952 60.306499 -9.301110 12.551502 -8.534408 -12.637552 59.447117 15.173918 0.205349 2.467246 26.218254 -5.560284 -4.354231 -24.738409 -2.703130 -3.507412 -2.450995 -17.348328 -4.675952 26.065798 5.525800 4.314322 -19.464714 -2.280306 1.963468 
137.506042 52.045650 -4.893201 6.989075 11.616936 95.945969 33.922653 -9.439221 -6.882756 -22.420425 3.366578 -0.636380 -25.780460 -0.152118 0.583168 32.603134 0.778713 1.419569 3.134826 -1.098498 2.090950 -57.524166 -50.973984 55.019924 -85.636269 2.094499 27.560555 8.524705 12.647240 -34.524788 -2.361975 3.467811 1.820220 61.392651 -6.489581 19.794218 59.636635 -9.250396 12.254537 -8.534408 -12.637552 58.158062 14.912704 1.035324 2.747886 26.833359 -5.521135 -4.439965 -25.229723 -2.871954 -3.569865 -2.968549 -16.442095 -4.041818 27.001242 5.478222 4.435749 -19.511414 -2.148151 2.007479 
137.749146 51.986309 -4.843115 6.236003 11.531970 95.694336 33.938885 -8.548198 -6.250168 -22.613773 2.890111 -0.573346 -25.662481 -0.032830 0.698333 31.745043 0.870044 1.714199 3.134826 -1.098498 2.090950 -57.525238 -50.749283 54.592724 -85.608231 2.133741 27.508268 8.524705 12.647240 -35.013073 -2.361975 3.467811 1.820220 61.804195 -6.210798 18.801426 58.986176 -9.186007 11.955599 -8.534408 -12.637552 56.859234 14.606317 1.855483 2.906472 27.477659 -5.482069 -4.518317 -25.548449 -3.069249 -3.645867 -3.358926 -15.551914 -4.127844 27.944942 5.428837 4.557943 -19.536507 -1.813311 2.126250 
138.008835 51.970360 -4.739431 5.703251 11.352485 95.300720 33.782421 -8.172606 -5.667603 -22.701084 2.730367 -0.477550 -25.936031 0.181273 0.596005 31.671495 0.406342 1.463756 3.134826 -1.098498 2.090950 -57.732872 -50.286732 54.142334 -85.586411 2.164613 27.456808 8.524705 12.647240 -35.638073 -2.361975 3.467811 1.820220 62.060780 -5.881560 18.027252 58.317413 -9.121814 11.663433 -8.534408 -12.637552 55.745953 14.291086 2.548675 3.165742 27.950258 -5.453318 -4.574114 -25.846085 -3.140882 -3.660963 -3.856332 -14.768045 -3.792377 28.876284 5.380542 4.687842 -19.816669 -1.616229 2.173186 
138.282227 51.957600 -4.688068 4.876890 11.346175 94.713524 33.621742 -7.377103 -4.830923 -22.366930 2.271666 -0.341198 -26.170464 0.371620 0.579111 31.113424 0.276857 1.468192 3.134826 -1.098498 2.090950 -57.886284 -50.010654 53.512218 -85.552490 2.211397 27.393888 8.524705 12.647240 -36.224010 -2.361975 3.467811 1.820220 62.284134 -5.053908 17.409155 57.445900 -9.021547 11.285994 -8.534408 -12.637552 54.535019 14.332746 3.417793 3.598266 28.142017 -5.434565 -4.605879 -26.307312 -3.243931 -3.693934 -3.876013 -13.725504 -3.679281 29.377064 5.350431 4.755018 -19.912249 -1.214123 2.277163 
138.573822 51.950577 -4.635429 5.148594 11.377137 94.206505 33.696140 -7.844702 -4.659375 -22.454611 2.190477 -0.240980 -26.435427 0.693382 0.451525 31.228191 -0.110761 1.242821 3.134826 -1.098498 2.090950 -58.058205 -49.167652 52.946587 -85.515030 2.266509 27.320614 8.524705 12.647240 -36.614635 -2.361975 3.467811 1.820220 62.445160 -4.586931 16.798094 56.638973 -8.915842 10.926419 -8.534408 -12.637552 53.099468 14.795528 3.045898 3.774077 28.242010 -5.433664 -4.604617 -26.655439 -3.102633 -3.614795 -3.895232 -13.957790 -3.754594 29.907244 5.321498 4.814393 -19.938843 -0.648615 2.490258 
138.863495 51.953449 -4.526960 6.671718 11.432834 94.151428 33.949860 -9.767826 -5.477359 -22.173138 2.722369 -0.197114 -26.113487 0.773877 0.447222 30.172949 -0.190751 1.248845 3.134826 -1.098498 2.090950 -58.267017 -48.470531 52.343018 -85.481712 2.313871 27.267744 8.524705 12.647240 -36.888073 -2.361975 3.467811 1.820220 62.640156 -3.710171 15.973299 55.865444 -8.807566 10.592628 -8.534408 -12.637552 51.732285 15.506763 1.484473 3.445250 28.468653 -5.442553 -4.647143 -26.741175 -2.992636 -3.544242 -3.885774 -15.580054 -3.786743 30.116739 5.312363 4.840145 -20.050362 -0.393889 2.563924 
139.088394 51.962704 -4.468899 6.131124 11.619526 94.125603 34.219223 -9.001699 -5.251154 -22.260246 2.495312 -0.224940 -26.152937 0.891970 0.465017 29.966894 -0.411676 1.272447 3.134826 -1.098498 2.090950 -58.586571 -47.449100 51.684776 -85.453194 2.352472 27.215395 8.524705 12.647240 -37.327526 -2.361975 3.467811 1.820220 62.679390 -2.831654 15.270645 55.041283 -8.687407 10.249640 -8.534408 -12.637552 50.316261 15.741240 2.119256 3.581373 28.701473 -5.413149 -4.690366 -26.750637 -3.269765 -3.686738 -3.056567 -14.858755 -4.259418 29.907244 5.321497 4.814391 -20.175388 -0.062111 2.662041 
139.305344 51.964615 -4.387228 5.324160 11.901114 93.934998 34.572117 -8.012704 -4.899568 -22.357332 2.317526 -0.246125 -26.279566 0.979796 0.572660 29.780365 -0.379938 1.525380 3.134826 -1.098498 2.090950 -58.986626 -46.387100 50.863365 -85.410942 2.405561 27.142263 8.524705 12.647240 -37.688858 -2.361975 3.467811 1.820220 62.670338 -1.913524 14.683775 54.418034 -8.586801 9.988330 -8.534408 -12.637552 48.656105 15.984836 3.144703 3.969653 28.919817 -5.413454 -4.719400 -26.722336 -3.520407 -3.809345 -2.069943 -13.715855 -4.561262 29.596807 5.336486 4.799931 -20.252438 0.159274 2.739155 
139.575226 51.982803 -4.246539 6.607746 11.932123 93.830780 34.832966 -9.708392 -5.763022 -22.340366 2.963291 -0.251205 -26.328705 1.098035 0.611624 29.466860 -0.408958 1.661647 3.134826 -1.098498 2.090950 -59.441471 -45.148151 50.066654 -85.353462 2.482139 27.037489 8.524705 12.647240 -37.815811 -2.361975 3.467811 1.820220 62.708805 -1.103361 14.147424 53.995880 -8.514202 9.806520 -8.534408 -12.637552 47.142437 16.521748 1.953428 3.832224 29.169645 -5.403423 -4.748513 -26.597160 -3.495807 -3.797774 -1.709444 -14.977921 -4.296576 29.145794 5.373344 4.710527 -20.255030 0.279867 2.788924 
139.782623 52.033527 -4.159125 6.663085 11.767282 93.605354 34.778667 -9.850497 -5.769518 -22.360275 3.041821 -0.247933 -26.095661 1.383319 0.670913 28.907181 -0.886173 1.786873 3.134826 -1.098498 2.090950 -59.878418 -43.977737 49.384296 -85.280869 2.573586 26.930994 8.524705 12.647240 -37.698616 -2.361975 3.467811 1.820220 62.827152 -0.137851 13.477001 53.437748 -8.418516 9.581153 -8.534408 -12.637552 45.609234 16.387360 1.992153 3.996624 29.531521 -5.375681 -4.784804 -26.389614 -3.475869 -3.819980 -1.445028 -14.875320 -4.141784 28.727690 5.375670 4.683311 -20.279182 0.375795 2.801824 
